<mxfile host="app.diagrams.net" modified="2020-12-21T08:48:39.419Z" agent="5.0 (Windows NT 10.0; Win64; x64) AppleWebKit/537.36 (KHTML, like Gecko) Chrome/86.0.4240.198 Safari/537.36" etag="HzL6NZZAHONBU1xjd-L6" version="14.1.1" type="github">
  <diagram name="Page-1" id="e7e014a7-5840-1c2e-5031-d8a46d1fe8dd">
    <mxGraphModel dx="1052" dy="554" grid="1" gridSize="10" guides="1" tooltips="1" connect="1" arrows="1" fold="1" page="1" pageScale="1" pageWidth="1169" pageHeight="826" background="#F1FAEE" math="0" shadow="0">
      <root>
        <mxCell id="0" />
        <mxCell id="1" parent="0" />
        <mxCell id="WDXZ6OaTbzTglmF-pZKz-93" value="Alt" style="shape=umlFrame;whiteSpace=wrap;rounded=0;sketch=0;strokeColor=#457B9D;fillColor=#A8DADC;fontFamily=Comic Sans MS;fontColor=#1D3557;fontStyle=0;html=1;" parent="1" vertex="1">
          <mxGeometry x="400" y="410" width="670" height="400" as="geometry" />
        </mxCell>
        <mxCell id="WDXZ6OaTbzTglmF-pZKz-103" value="三方厂商处理函数请求三方厂商" style="html=1;verticalAlign=bottom;endArrow=block;strokeColor=#457B9D;fillColor=#A8DADC;fontColor=#1D3557;fontFamily=Comic Sans MS;entryX=-0.48;entryY=0.141;entryDx=0;entryDy=0;entryPerimeter=0;labelBackgroundColor=#F1FAEE;" parent="1" source="WDXZ6OaTbzTglmF-pZKz-66" target="WDXZ6OaTbzTglmF-pZKz-102" edge="1">
          <mxGeometry relative="1" as="geometry">
            <mxPoint x="960" y="450" as="sourcePoint" />
            <mxPoint x="1010" y="460" as="targetPoint" />
          </mxGeometry>
        </mxCell>
        <mxCell id="WDXZ6OaTbzTglmF-pZKz-44" value="前端" style="shape=umlLifeline;perimeter=lifelinePerimeter;whiteSpace=wrap;html=1;container=1;collapsible=0;recursiveResize=0;outlineConnect=0;strokeColor=#457B9D;glass=0;shadow=0;fontFamily=Comic Sans MS;fillColor=#A8DADC;fontColor=#1D3557;" parent="1" vertex="1">
          <mxGeometry x="110" y="140" width="100" height="770" as="geometry" />
        </mxCell>
        <mxCell id="WDXZ6OaTbzTglmF-pZKz-119" value="返回结果" style="html=1;verticalAlign=bottom;endArrow=open;dashed=1;endSize=8;strokeColor=#457B9D;fillColor=#A8DADC;fontColor=#1D3557;entryX=1.376;entryY=0.945;entryDx=0;entryDy=0;entryPerimeter=0;labelBackgroundColor=#F1FAEE;" parent="WDXZ6OaTbzTglmF-pZKz-44" target="WDXZ6OaTbzTglmF-pZKz-58" edge="1">
          <mxGeometry relative="1" as="geometry">
            <mxPoint x="460" y="390" as="sourcePoint" />
            <mxPoint x="230" y="388" as="targetPoint" />
          </mxGeometry>
        </mxCell>
        <mxCell id="WDXZ6OaTbzTglmF-pZKz-121" value="返回结果" style="html=1;verticalAlign=bottom;endArrow=open;dashed=1;endSize=8;strokeColor=#457B9D;fillColor=#A8DADC;fontColor=#1D3557;labelBackgroundColor=#F1FAEE;entryX=1.183;entryY=0.525;entryDx=0;entryDy=0;entryPerimeter=0;" parent="WDXZ6OaTbzTglmF-pZKz-44" target="WDXZ6OaTbzTglmF-pZKz-45" edge="1">
          <mxGeometry relative="1" as="geometry">
            <mxPoint x="215" y="390" as="sourcePoint" />
            <mxPoint x="58" y="388" as="targetPoint" />
          </mxGeometry>
        </mxCell>
        <mxCell id="WDXZ6OaTbzTglmF-pZKz-45" value="" style="html=1;points=[];perimeter=orthogonalPerimeter;strokeColor=#457B9D;fillColor=#A8DADC;fontColor=#1D3557;fontFamily=Comic Sans MS;" parent="1" vertex="1">
          <mxGeometry x="155" y="230" width="10" height="570" as="geometry" />
        </mxCell>
        <mxCell id="WDXZ6OaTbzTglmF-pZKz-47" value="IntelligentAuditAtom" style="shape=umlLifeline;perimeter=lifelinePerimeter;whiteSpace=wrap;html=1;container=1;collapsible=0;recursiveResize=0;outlineConnect=0;strokeColor=#457B9D;fillColor=#A8DADC;fontFamily=Comic Sans MS;fontColor=#1D3557;" parent="1" vertex="1">
          <mxGeometry x="260" y="140" width="140" height="790" as="geometry" />
        </mxCell>
        <mxCell id="WDXZ6OaTbzTglmF-pZKz-134" value="" style="html=1;points=[];perimeter=orthogonalPerimeter;strokeColor=#457B9D;fillColor=#A8DADC;fontFamily=Comic Sans MS;fontColor=#1D3557;" parent="WDXZ6OaTbzTglmF-pZKz-47" vertex="1">
          <mxGeometry x="65" y="490" width="10" height="172" as="geometry" />
        </mxCell>
        <mxCell id="WDXZ6OaTbzTglmF-pZKz-64" value="" style="edgeStyle=none;rounded=1;orthogonalLoop=1;jettySize=auto;html=1;startArrow=none;startFill=0;strokeColor=#457B9D;fillColor=#A8DADC;fontFamily=Comic Sans MS;fontColor=#1D3557;labelBackgroundColor=#F1FAEE;" parent="1" source="WDXZ6OaTbzTglmF-pZKz-54" target="WDXZ6OaTbzTglmF-pZKz-47" edge="1">
          <mxGeometry relative="1" as="geometry" />
        </mxCell>
        <mxCell id="WDXZ6OaTbzTglmF-pZKz-54" value="" style="html=1;points=[];perimeter=orthogonalPerimeter;strokeColor=#457B9D;fillColor=#A8DADC;fontFamily=Comic Sans MS;fontColor=#1D3557;" parent="1" vertex="1">
          <mxGeometry x="325" y="230" width="10" height="80" as="geometry" />
        </mxCell>
        <mxCell id="WDXZ6OaTbzTglmF-pZKz-57" value="&lt;span style=&quot;text-align: center&quot;&gt;getExecAiRuleData&lt;/span&gt;" style="edgeStyle=orthogonalEdgeStyle;html=1;align=left;spacingLeft=2;endArrow=block;rounded=0;entryX=1;entryY=0;strokeColor=#457B9D;fillColor=#A8DADC;fontFamily=Comic Sans MS;fontColor=#1D3557;labelBackgroundColor=#F1FAEE;" parent="1" edge="1">
          <mxGeometry relative="1" as="geometry">
            <mxPoint x="585" y="310.01" as="sourcePoint" />
            <Array as="points">
              <mxPoint x="580" y="310.01" />
              <mxPoint x="605" y="310.01" />
              <mxPoint x="605" y="340.01" />
            </Array>
            <mxPoint x="585" y="340.0099999999999" as="targetPoint" />
          </mxGeometry>
        </mxCell>
        <mxCell id="WDXZ6OaTbzTglmF-pZKz-58" value="" style="html=1;points=[];perimeter=orthogonalPerimeter;strokeColor=#457B9D;fillColor=#A8DADC;fontFamily=Comic Sans MS;fontColor=#1D3557;" parent="1" vertex="1">
          <mxGeometry x="325" y="368" width="10" height="172" as="geometry" />
        </mxCell>
        <mxCell id="WDXZ6OaTbzTglmF-pZKz-66" value="IntelligentAuditBiz" style="shape=umlLifeline;perimeter=lifelinePerimeter;whiteSpace=wrap;html=1;container=1;collapsible=0;recursiveResize=0;outlineConnect=0;strokeColor=#457B9D;fillColor=#A8DADC;fontFamily=Comic Sans MS;fontColor=#1D3557;" parent="1" vertex="1">
          <mxGeometry x="505" y="140" width="140" height="780" as="geometry" />
        </mxCell>
        <mxCell id="WDXZ6OaTbzTglmF-pZKz-122" value="" style="html=1;points=[];perimeter=orthogonalPerimeter;rounded=0;sketch=0;strokeColor=#457B9D;fillColor=#A8DADC;fontColor=#1D3557;" parent="WDXZ6OaTbzTglmF-pZKz-66" vertex="1">
          <mxGeometry x="65" y="440" width="10" height="220" as="geometry" />
        </mxCell>
        <mxCell id="WDXZ6OaTbzTglmF-pZKz-75" value="dispatch" style="html=1;verticalAlign=bottom;endArrow=block;strokeColor=#457B9D;fillColor=#A8DADC;fontColor=#1D3557;fontFamily=Comic Sans MS;labelBackgroundColor=#F1FAEE;" parent="1" edge="1">
          <mxGeometry width="80" relative="1" as="geometry">
            <mxPoint x="165" y="240" as="sourcePoint" />
            <mxPoint x="320" y="240" as="targetPoint" />
          </mxGeometry>
        </mxCell>
        <mxCell id="WDXZ6OaTbzTglmF-pZKz-77" value="" style="html=1;points=[];perimeter=orthogonalPerimeter;rounded=0;sketch=0;strokeColor=#457B9D;fillColor=#A8DADC;fontColor=#1D3557;" parent="1" vertex="1">
          <mxGeometry x="570" y="300" width="10" height="240" as="geometry" />
        </mxCell>
        <mxCell id="WDXZ6OaTbzTglmF-pZKz-78" value="getExecAiRuleData" style="html=1;verticalAlign=bottom;endArrow=block;entryX=0;entryY=0;strokeColor=#457B9D;fillColor=#A8DADC;fontColor=#1D3557;exitX=0.961;exitY=0.869;exitDx=0;exitDy=0;exitPerimeter=0;fontFamily=Comic Sans MS;labelBackgroundColor=#F1FAEE;" parent="1" source="WDXZ6OaTbzTglmF-pZKz-54" target="WDXZ6OaTbzTglmF-pZKz-77" edge="1">
          <mxGeometry relative="1" as="geometry">
            <mxPoint x="440" y="368" as="sourcePoint" />
          </mxGeometry>
        </mxCell>
        <mxCell id="WDXZ6OaTbzTglmF-pZKz-81" value="intelligentServiceFaceSignData" style="edgeStyle=orthogonalEdgeStyle;html=1;align=left;spacingLeft=2;endArrow=block;rounded=0;entryX=1;entryY=0;strokeColor=#457B9D;fillColor=#A8DADC;fontFamily=Comic Sans MS;fontColor=#1D3557;labelBackgroundColor=#F1FAEE;" parent="1" edge="1">
          <mxGeometry relative="1" as="geometry">
            <mxPoint x="340" y="255.01" as="sourcePoint" />
            <Array as="points">
              <mxPoint x="335" y="255.01" />
              <mxPoint x="360" y="255.01" />
              <mxPoint x="360" y="285.01" />
            </Array>
            <mxPoint x="340" y="285.0099999999999" as="targetPoint" />
          </mxGeometry>
        </mxCell>
        <mxCell id="WDXZ6OaTbzTglmF-pZKz-82" value="&lt;span style=&quot;text-align: center&quot;&gt;getExtData&lt;/span&gt;" style="edgeStyle=orthogonalEdgeStyle;html=1;align=left;spacingLeft=2;endArrow=block;rounded=0;strokeColor=#457B9D;fillColor=#A8DADC;fontFamily=Comic Sans MS;fontColor=#1D3557;labelBackgroundColor=#F1FAEE;" parent="1" edge="1">
          <mxGeometry relative="1" as="geometry">
            <mxPoint x="585" y="360.01" as="sourcePoint" />
            <Array as="points">
              <mxPoint x="580" y="360.01" />
              <mxPoint x="605" y="360.01" />
              <mxPoint x="605" y="390.01" />
            </Array>
            <mxPoint x="585" y="390" as="targetPoint" />
          </mxGeometry>
        </mxCell>
        <mxCell id="WDXZ6OaTbzTglmF-pZKz-95" value="" style="endArrow=none;html=1;strokeColor=#457B9D;fillColor=#A8DADC;fontFamily=Comic Sans MS;fontColor=#1D3557;dashed=1;labelBackgroundColor=#F1FAEE;" parent="1" edge="1">
          <mxGeometry width="50" height="50" relative="1" as="geometry">
            <mxPoint x="1071" y="558" as="sourcePoint" />
            <mxPoint x="402" y="558" as="targetPoint" />
          </mxGeometry>
        </mxCell>
        <mxCell id="WDXZ6OaTbzTglmF-pZKz-97" value="厂商编号是S9999" style="text;resizable=0;autosize=1;align=center;verticalAlign=middle;points=[];fillColor=none;strokeColor=none;rounded=0;sketch=0;fontFamily=Comic Sans MS;fontColor=#1D3557;" parent="1" vertex="1">
          <mxGeometry x="420" y="570" width="110" height="20" as="geometry" />
        </mxCell>
        <mxCell id="WDXZ6OaTbzTglmF-pZKz-98" value="厂商编号不是S9999" style="text;resizable=0;autosize=1;align=center;verticalAlign=middle;points=[];fillColor=none;strokeColor=none;rounded=0;sketch=0;fontFamily=Comic Sans MS;fontColor=#1D3557;" parent="1" vertex="1">
          <mxGeometry x="410" y="444" width="130" height="20" as="geometry" />
        </mxCell>
        <mxCell id="WDXZ6OaTbzTglmF-pZKz-99" value="三方厂商" style="shape=umlLifeline;perimeter=lifelinePerimeter;whiteSpace=wrap;html=1;container=1;collapsible=0;recursiveResize=0;outlineConnect=0;strokeColor=#457B9D;fillColor=#A8DADC;fontFamily=Comic Sans MS;fontColor=#1D3557;" parent="1" vertex="1">
          <mxGeometry x="960" y="140" width="140" height="790" as="geometry" />
        </mxCell>
        <mxCell id="WDXZ6OaTbzTglmF-pZKz-102" value="" style="html=1;points=[];perimeter=orthogonalPerimeter;rounded=0;sketch=0;strokeColor=#457B9D;fillColor=#A8DADC;fontColor=#1D3557;" parent="WDXZ6OaTbzTglmF-pZKz-99" vertex="1">
          <mxGeometry x="65" y="310" width="10" height="80" as="geometry" />
        </mxCell>
        <mxCell id="WDXZ6OaTbzTglmF-pZKz-131" value="" style="html=1;points=[];perimeter=orthogonalPerimeter;rounded=0;sketch=0;strokeColor=#457B9D;fillColor=#A8DADC;fontColor=#1D3557;" parent="WDXZ6OaTbzTglmF-pZKz-99" vertex="1">
          <mxGeometry x="65" y="600" width="10" height="60" as="geometry" />
        </mxCell>
        <mxCell id="WDXZ6OaTbzTglmF-pZKz-114" value="IntelligentRuleUtil" style="shape=umlLifeline;perimeter=lifelinePerimeter;whiteSpace=wrap;html=1;container=1;collapsible=0;recursiveResize=0;outlineConnect=0;strokeColor=#457B9D;fillColor=#A8DADC;fontFamily=Comic Sans MS;fontColor=#1D3557;" parent="1" vertex="1">
          <mxGeometry x="730" y="140" width="140" height="780" as="geometry" />
        </mxCell>
        <mxCell id="WDXZ6OaTbzTglmF-pZKz-115" value="" style="html=1;points=[];perimeter=orthogonalPerimeter;rounded=0;sketch=0;strokeColor=#457B9D;fillColor=#A8DADC;fontColor=#1D3557;" parent="WDXZ6OaTbzTglmF-pZKz-114" vertex="1">
          <mxGeometry x="65" y="490" width="10" height="50" as="geometry" />
        </mxCell>
        <mxCell id="WDXZ6OaTbzTglmF-pZKz-118" value="返回结果" style="html=1;verticalAlign=bottom;endArrow=open;dashed=1;endSize=8;strokeColor=#457B9D;fillColor=#A8DADC;fontColor=#1D3557;labelBackgroundColor=#F1FAEE;" parent="1" edge="1">
          <mxGeometry relative="1" as="geometry">
            <mxPoint x="1020" y="530" as="sourcePoint" />
            <mxPoint x="580" y="530" as="targetPoint" />
          </mxGeometry>
        </mxCell>
        <mxCell id="WDXZ6OaTbzTglmF-pZKz-123" value="&lt;span style=&quot;text-align: center&quot;&gt;assemblyCall&lt;/span&gt;" style="edgeStyle=orthogonalEdgeStyle;html=1;align=left;spacingLeft=2;endArrow=block;rounded=0;strokeColor=#457B9D;fillColor=#A8DADC;fontFamily=Comic Sans MS;fontColor=#1D3557;labelBackgroundColor=#F1FAEE;" parent="1" edge="1">
          <mxGeometry relative="1" as="geometry">
            <mxPoint x="585" y="590.01" as="sourcePoint" />
            <Array as="points">
              <mxPoint x="580" y="590.01" />
              <mxPoint x="605" y="590.01" />
              <mxPoint x="605" y="620.01" />
            </Array>
            <mxPoint x="585" y="620" as="targetPoint" />
          </mxGeometry>
        </mxCell>
        <mxCell id="WDXZ6OaTbzTglmF-pZKz-125" value="调相关Atom" style="verticalAlign=bottom;endArrow=block;strokeColor=#457B9D;fillColor=#A8DADC;fontColor=#1D3557;fontFamily=Comic Sans MS;html=1;labelBackgroundColor=#F1FAEE;" parent="1" edge="1">
          <mxGeometry width="80" relative="1" as="geometry">
            <mxPoint x="585" y="640" as="sourcePoint" />
            <mxPoint x="790" y="640" as="targetPoint" />
          </mxGeometry>
        </mxCell>
        <mxCell id="WDXZ6OaTbzTglmF-pZKz-126" value="" style="endArrow=none;startArrow=block;endFill=0;startFill=1;html=1;strokeColor=#457B9D;fillColor=#A8DADC;fontFamily=Comic Sans MS;fontColor=#1D3557;entryX=-0.319;entryY=0.86;entryDx=0;entryDy=0;entryPerimeter=0;labelBackgroundColor=#F1FAEE;" parent="1" target="WDXZ6OaTbzTglmF-pZKz-115" edge="1">
          <mxGeometry width="160" relative="1" as="geometry">
            <mxPoint x="580" y="673" as="sourcePoint" />
            <mxPoint x="740" y="730" as="targetPoint" />
          </mxGeometry>
        </mxCell>
        <mxCell id="WDXZ6OaTbzTglmF-pZKz-128" value="getExecAiData" style="edgeLabel;html=1;align=center;verticalAlign=middle;resizable=0;points=[];fontFamily=Comic Sans MS;fontColor=#1D3557;labelBackgroundColor=#F1FAEE;" parent="WDXZ6OaTbzTglmF-pZKz-126" vertex="1" connectable="0">
          <mxGeometry x="-0.1919" y="-2" relative="1" as="geometry">
            <mxPoint x="24.29" y="-12.08" as="offset" />
          </mxGeometry>
        </mxCell>
        <mxCell id="WDXZ6OaTbzTglmF-pZKz-129" value="&lt;span style=&quot;text-align: center&quot;&gt;getExtData&lt;/span&gt;" style="edgeStyle=orthogonalEdgeStyle;html=1;align=left;spacingLeft=2;endArrow=block;rounded=0;strokeColor=#457B9D;fillColor=#A8DADC;fontFamily=Comic Sans MS;fontColor=#1D3557;labelBackgroundColor=#F1FAEE;" parent="1" edge="1">
          <mxGeometry relative="1" as="geometry">
            <mxPoint x="585" y="690.01" as="sourcePoint" />
            <Array as="points">
              <mxPoint x="580" y="690.01" />
              <mxPoint x="605" y="690.01" />
              <mxPoint x="605" y="720.01" />
            </Array>
            <mxPoint x="585" y="720" as="targetPoint" />
          </mxGeometry>
        </mxCell>
        <mxCell id="WDXZ6OaTbzTglmF-pZKz-132" value="三方厂商处理函数请求三方厂商" style="html=1;verticalAlign=bottom;endArrow=block;strokeColor=#457B9D;fillColor=#A8DADC;fontColor=#1D3557;fontFamily=Comic Sans MS;entryX=-0.48;entryY=0.141;entryDx=0;entryDy=0;entryPerimeter=0;labelBackgroundColor=#F1FAEE;" parent="1" edge="1">
          <mxGeometry relative="1" as="geometry">
            <mxPoint x="580" y="750" as="sourcePoint" />
            <mxPoint x="1025.6999999999998" y="750" as="targetPoint" />
          </mxGeometry>
        </mxCell>
        <mxCell id="WDXZ6OaTbzTglmF-pZKz-133" value="返回结果" style="html=1;verticalAlign=bottom;endArrow=open;dashed=1;endSize=8;strokeColor=#457B9D;fillColor=#A8DADC;fontColor=#1D3557;labelBackgroundColor=#F1FAEE;" parent="1" edge="1">
          <mxGeometry relative="1" as="geometry">
            <mxPoint x="1020" y="790" as="sourcePoint" />
            <mxPoint x="580" y="790" as="targetPoint" />
          </mxGeometry>
        </mxCell>
        <mxCell id="WDXZ6OaTbzTglmF-pZKz-135" value="返回结果" style="html=1;verticalAlign=bottom;endArrow=open;dashed=1;endSize=8;strokeColor=#457B9D;fillColor=#A8DADC;fontColor=#1D3557;entryX=1.376;entryY=0.945;entryDx=0;entryDy=0;entryPerimeter=0;labelBackgroundColor=#F1FAEE;" parent="1" edge="1">
          <mxGeometry relative="1" as="geometry">
            <mxPoint x="570" y="790" as="sourcePoint" />
            <mxPoint x="338.76" y="790.54" as="targetPoint" />
          </mxGeometry>
        </mxCell>
        <mxCell id="WDXZ6OaTbzTglmF-pZKz-136" value="返回结果" style="html=1;verticalAlign=bottom;endArrow=open;dashed=1;endSize=8;strokeColor=#457B9D;fillColor=#A8DADC;fontColor=#1D3557;labelBackgroundColor=#F1FAEE;entryX=1.022;entryY=0.588;entryDx=0;entryDy=0;entryPerimeter=0;" parent="1" edge="1">
          <mxGeometry relative="1" as="geometry">
            <mxPoint x="325" y="790.12" as="sourcePoint" />
            <mxPoint x="165.2199999999998" y="789.9999999999999" as="targetPoint" />
          </mxGeometry>
        </mxCell>
      </root>
    </mxGraphModel>
  </diagram>
</mxfile>
